<?xml version="1.0" encoding="UTF-8"?>
<svg xmlns="http://www.w3.org/2000/svg" xmlns:xlink="http://www.w3.org/1999/xlink" viewBox="0 0 100 100" width="100px" height="100px">
<g id="surface61208722">
<path style=" stroke:none;fill-rule:nonzero;fill:rgb(41.960785%,44.705883%,50.196081%);fill-opacity:1;" d="M 50 20.007812 C 36.667969 20.007812 28.332031 26.671875 25 40.003906 C 30 33.335938 35.832031 30.839844 42.5 32.503906 C 46.304688 33.453125 49.023438 36.214844 52.035156 39.269531 C 56.933594 44.242188 62.605469 50 75 50 C 88.332031 50 96.667969 43.335938 100 30.003906 C 95 36.667969 89.167969 39.167969 82.5 37.503906 C 78.699219 36.554688 75.980469 33.792969 72.96875 30.738281 C 68.066406 25.765625 62.390625 20.007812 50 20.007812 Z M 25 50 C 11.667969 50 3.332031 56.664062 0 69.996094 C 5 63.332031 10.832031 60.832031 17.5 62.496094 C 21.300781 63.449219 24.019531 66.207031 27.03125 69.261719 C 31.933594 74.234375 37.609375 79.992188 50 79.992188 C 63.332031 79.992188 71.667969 73.328125 75 59.996094 C 70 66.664062 64.167969 69.164062 57.5 67.496094 C 53.695312 66.546875 50.976562 63.785156 47.964844 60.734375 C 43.066406 55.757812 37.394531 50 25 50 Z M 25 50 "/>
</g>
</svg>
